<?xml version='1.0' encoding='utf-8'?>
<svg xmlns="http://www.w3.org/2000/svg" version="1.1" width="120" height="121.41341" viewBox="0,0,120,121.41341"><g transform="translate(-180,-118.58659)"><g data-paper-data="{&quot;isPaintingLayer&quot;:true}" fill-rule="nonzero" stroke-linejoin="miter" stroke-miterlimit="10" stroke-dasharray="" stroke-dashoffset="0" style="mix-blend-mode: normal"><path d="M181,180c0,-32.5848 26.4152,-59 59,-59c32.5848,0 59,26.4152 59,59c0,32.5848 -26.4152,59 -59,59c-32.5848,0 -59,-26.4152 -59,-59z" fill="#66d7ff" stroke="#52aecc" stroke-width="2" stroke-linecap="butt"/><path d="M189,180c0,-28.16652 22.83348,-51 51,-51c28.16652,0 51,22.83348 51,51c0,28.16652 -22.83348,51 -51,51c-28.16652,0 -51,-22.83348 -51,-51z" fill="#ffbb66" stroke="#cc9352" stroke-width="2" stroke-linecap="butt"/><path d="M204,195.6v-31.2h72v31.2z" fill="#ffffff" stroke="#cccccc" stroke-width="2" stroke-linecap="butt"/><text transform="translate(211,189.29318) scale(0.54545,0.54545)" font-size="40" fill="#000000" fill-rule="nonzero" stroke="none" stroke-width="1" stroke-linecap="butt" stroke-linejoin="miter" stroke-miterlimit="10" stroke-dasharray="" stroke-dashoffset="0" font-family="Pixel" font-weight="normal" text-anchor="start" style="mix-blend-mode: normal"><tspan x="0" dy="0">34:12</tspan></text><path d="M195.99721,140.18819l-6.03552,-7.97323l17.54111,-13.27815l6.03552,7.97323z" fill="#ff4a00" stroke="#cc3d00" stroke-width="0.5" stroke-linecap="butt"/><path d="M268.70054,128.21004l6.00167,-7.99875l17.59725,13.20367l-6.00167,7.99875z" data-paper-data="{&quot;index&quot;:null}" fill="#ff4a00" stroke="#cc3d00" stroke-width="0.5" stroke-linecap="butt"/><path d="M269.53678,128.82696l6.32362,-7.15101" fill="none" stroke="#cc3d00" stroke-width="0.5" stroke-linecap="round"/><path d="M271.34525,129.73314l6.32362,-7.15101" fill="none" stroke="#cc3d00" stroke-width="0.5" stroke-linecap="round"/><path d="M272.91904,131.13886l6.44072,-7.28343" fill="none" stroke="#cc3d00" stroke-width="0.5" stroke-linecap="round"/><path d="M274.22751,132.29505l6.44072,-7.28343" fill="none" stroke="#cc3d00" stroke-width="0.5" stroke-linecap="round"/><path d="M276.05083,133.43545l6.08941,-6.88615" fill="none" stroke="#cc3d00" stroke-width="0.5" stroke-linecap="round"/><path d="M277.37509,134.60649l6.32362,-7.15101" fill="none" stroke="#cc3d00" stroke-width="0.5" stroke-linecap="round"/><path d="M278.93356,135.51267l6.32362,-7.15101" fill="none" stroke="#cc3d00" stroke-width="0.5" stroke-linecap="round"/><path d="M280.50735,136.66839l6.44072,-7.28343" fill="none" stroke="#cc3d00" stroke-width="0.5" stroke-linecap="round"/><path d="M281.81581,137.82458l6.44072,-7.28343" fill="none" stroke="#cc3d00" stroke-width="0.5" stroke-linecap="round"/><path d="M283.40375,139.21125l6.44251,-7.51626" fill="none" stroke="#cc3d00" stroke-width="0.5" stroke-linecap="round"/><path d="M284.95391,140.50413l6.46718,-7.72702" fill="none" stroke="#cc3d00" stroke-width="0.5" stroke-linecap="round"/><path d="M212.42109,127.82696l-6.32361,-7.151" data-paper-data="{&quot;index&quot;:null}" fill="none" stroke="#cc3d00" stroke-width="0.5" stroke-linecap="round"/><path d="M210.61262,128.73315l-6.32361,-7.15101" data-paper-data="{&quot;index&quot;:null}" fill="none" stroke="#cc3d00" stroke-width="0.5" stroke-linecap="round"/><path d="M202.59811,122.85543l6.44072,7.28343" data-paper-data="{&quot;index&quot;:null}" fill="none" stroke="#cc3d00" stroke-width="0.5" stroke-linecap="round"/><path d="M207.73036,131.29505l-6.44072,-7.28343" data-paper-data="{&quot;index&quot;:null}" fill="none" stroke="#cc3d00" stroke-width="0.5" stroke-linecap="round"/><path d="M199.81763,125.5493l6.08941,6.88615" data-paper-data="{&quot;index&quot;:null}" fill="none" stroke="#cc3d00" stroke-width="0.5" stroke-linecap="round"/><path d="M204.58278,133.60649l-6.32362,-7.151" data-paper-data="{&quot;index&quot;:null}" fill="none" stroke="#cc3d00" stroke-width="0.5" stroke-linecap="round"/><path d="M196.7007,127.36167l6.32361,7.151" data-paper-data="{&quot;index&quot;:null}" fill="none" stroke="#cc3d00" stroke-width="0.5" stroke-linecap="round"/><path d="M201.45052,135.6684l-6.44072,-7.28343" data-paper-data="{&quot;index&quot;:null}" fill="none" stroke="#cc3d00" stroke-width="0.5" stroke-linecap="round"/><path d="M200.14206,136.82458l-6.44072,-7.28343" data-paper-data="{&quot;index&quot;:null}" fill="none" stroke="#cc3d00" stroke-width="0.5" stroke-linecap="round"/><path d="M198.55412,138.21126l-6.44251,-7.51626" data-paper-data="{&quot;index&quot;:null}" fill="none" stroke="#cc3d00" stroke-width="0.5" stroke-linecap="round"/><path d="M197.00396,139.50414l-6.46718,-7.72702" data-paper-data="{&quot;index&quot;:null}" fill="none" stroke="#cc3d00" stroke-width="0.5" stroke-linecap="round"/></g></g></svg>